<mxfile host="app.diagrams.net" modified="2024-05-23T12:49:23.692Z" agent="Mozilla/5.0 (Windows NT 10.0; Win64; x64) AppleWebKit/537.36 (KHTML, like Gecko) Chrome/125.0.0.0 Safari/537.36" etag="ugD7pZLBUzTLxTqco0qj" version="24.1.0" type="device">
  <diagram name="Page-1" id="fS3xsWflCn9IaGaxSnpG">
    <mxGraphModel dx="700" dy="435" grid="1" gridSize="10" guides="1" tooltips="1" connect="1" arrows="1" fold="1" page="1" pageScale="1" pageWidth="850" pageHeight="1100" math="1" shadow="0">
      <root>
        <mxCell id="0" />
        <mxCell id="1" parent="0" />
        <mxCell id="eO5nGZcq3pVy4llHfn7S-5" value="" style="rounded=0;whiteSpace=wrap;html=1;strokeColor=#F7F7F7;" vertex="1" parent="1">
          <mxGeometry x="360" y="340" width="120" height="60" as="geometry" />
        </mxCell>
        <mxCell id="eO5nGZcq3pVy4llHfn7S-9" value="" style="ellipse;whiteSpace=wrap;html=1;aspect=fixed;fillStyle=solid;strokeColor=#F7F7F7;" vertex="1" parent="1">
          <mxGeometry x="415" y="365" width="10" height="10" as="geometry" />
        </mxCell>
        <mxCell id="eO5nGZcq3pVy4llHfn7S-10" value="" style="endArrow=classic;html=1;rounded=0;exitX=1;exitY=0.5;exitDx=0;exitDy=0;strokeColor=#F7F7F7;" edge="1" parent="1" source="eO5nGZcq3pVy4llHfn7S-9">
          <mxGeometry width="50" height="50" relative="1" as="geometry">
            <mxPoint x="440" y="460" as="sourcePoint" />
            <mxPoint x="520" y="370" as="targetPoint" />
          </mxGeometry>
        </mxCell>
        <mxCell id="eO5nGZcq3pVy4llHfn7S-11" value="" style="endArrow=classic;html=1;rounded=0;exitX=0;exitY=0.5;exitDx=0;exitDy=0;strokeColor=#F7F7F7;" edge="1" parent="1" source="eO5nGZcq3pVy4llHfn7S-9">
          <mxGeometry width="50" height="50" relative="1" as="geometry">
            <mxPoint x="435" y="380" as="sourcePoint" />
            <mxPoint x="390" y="370" as="targetPoint" />
          </mxGeometry>
        </mxCell>
        <mxCell id="eO5nGZcq3pVy4llHfn7S-12" value="" style="rounded=0;whiteSpace=wrap;html=1;fillStyle=hatch;strokeColor=#F7F7F7;" vertex="1" parent="1">
          <mxGeometry x="280" y="400" width="280" height="10" as="geometry" />
        </mxCell>
        <mxCell id="eO5nGZcq3pVy4llHfn7S-14" value="&lt;font color=&quot;#ffffff&quot;&gt;$$-\mu \dot{x}$$&lt;/font&gt;" style="text;html=1;align=center;verticalAlign=middle;whiteSpace=wrap;rounded=0;strokeColor=#F7F7F7;" vertex="1" parent="1">
          <mxGeometry x="350" y="340" width="95" height="30" as="geometry" />
        </mxCell>
        <mxCell id="eO5nGZcq3pVy4llHfn7S-15" value="&lt;font color=&quot;#f5f5f5&quot;&gt;$$F$$&lt;/font&gt;" style="text;html=1;align=center;verticalAlign=middle;whiteSpace=wrap;rounded=0;strokeColor=#F7F7F7;" vertex="1" parent="1">
          <mxGeometry x="465" y="340" width="95" height="30" as="geometry" />
        </mxCell>
      </root>
    </mxGraphModel>
  </diagram>
</mxfile>
